<mxfile host="app.diagrams.net" modified="2023-02-28T08:12:17.108Z" agent="5.0 (Macintosh; Intel Mac OS X 10_15_7) AppleWebKit/605.1.15 (KHTML, like Gecko) Version/16.2 Safari/605.1.15" etag="CbLwTRU4JFYmp8yANsHn" version="20.8.23" type="github" pages="2">
  <diagram name="Page-1" id="grT6pdk8FLYi_9iFTF6R">
    <mxGraphModel dx="986" dy="746" grid="1" gridSize="10" guides="1" tooltips="1" connect="1" arrows="1" fold="1" page="1" pageScale="1" pageWidth="827" pageHeight="1169" math="0" shadow="0">
      <root>
        <mxCell id="0" />
        <mxCell id="1" parent="0" />
        <mxCell id="xaJSOk3ItUcQXaajEq7--19" style="edgeStyle=orthogonalEdgeStyle;rounded=0;orthogonalLoop=1;jettySize=auto;html=1;endArrow=ERzeroToMany;endFill=0;entryX=0;entryY=0.5;entryDx=0;entryDy=0;startArrow=ERmandOne;startFill=0;" parent="1" source="xaJSOk3ItUcQXaajEq7--5" target="xaJSOk3ItUcQXaajEq7--13" edge="1">
          <mxGeometry relative="1" as="geometry">
            <mxPoint x="239" y="270" as="targetPoint" />
          </mxGeometry>
        </mxCell>
        <mxCell id="xaJSOk3ItUcQXaajEq7--22" style="edgeStyle=orthogonalEdgeStyle;rounded=0;orthogonalLoop=1;jettySize=auto;html=1;entryX=0;entryY=0.5;entryDx=0;entryDy=0;endArrow=ERzeroToMany;endFill=0;startArrow=ERmandOne;startFill=0;" parent="1" source="xaJSOk3ItUcQXaajEq7--5" target="xaJSOk3ItUcQXaajEq7--7" edge="1">
          <mxGeometry relative="1" as="geometry" />
        </mxCell>
        <mxCell id="xaJSOk3ItUcQXaajEq7--5" value="Useurs" style="swimlane;whiteSpace=wrap;html=1;" parent="1" vertex="1">
          <mxGeometry x="49" y="170" width="200" height="200" as="geometry" />
        </mxCell>
        <mxCell id="xaJSOk3ItUcQXaajEq7--7" value="Bedroom" style="swimlane;whiteSpace=wrap;html=1;" parent="1" vertex="1">
          <mxGeometry x="229" y="430" width="200" height="200" as="geometry" />
        </mxCell>
        <mxCell id="xaJSOk3ItUcQXaajEq7--23" style="edgeStyle=orthogonalEdgeStyle;rounded=0;orthogonalLoop=1;jettySize=auto;html=1;entryX=1;entryY=0.5;entryDx=0;entryDy=0;endArrow=ERoneToMany;endFill=0;startArrow=ERzeroToOne;startFill=0;" parent="1" source="xaJSOk3ItUcQXaajEq7--13" target="xaJSOk3ItUcQXaajEq7--7" edge="1">
          <mxGeometry relative="1" as="geometry" />
        </mxCell>
        <mxCell id="xaJSOk3ItUcQXaajEq7--27" style="edgeStyle=orthogonalEdgeStyle;rounded=0;orthogonalLoop=1;jettySize=auto;html=1;entryX=0.5;entryY=0;entryDx=0;entryDy=0;startArrow=ERzeroToOne;startFill=0;endArrow=ERzeroToOne;endFill=0;" parent="1" source="xaJSOk3ItUcQXaajEq7--13" target="xaJSOk3ItUcQXaajEq7--24" edge="1">
          <mxGeometry relative="1" as="geometry">
            <Array as="points">
              <mxPoint x="679" y="270" />
            </Array>
          </mxGeometry>
        </mxCell>
        <mxCell id="xaJSOk3ItUcQXaajEq7--13" value="Reservations" style="swimlane;whiteSpace=wrap;html=1;" parent="1" vertex="1">
          <mxGeometry x="409" y="170" width="200" height="200" as="geometry" />
        </mxCell>
        <mxCell id="xaJSOk3ItUcQXaajEq7--29" style="edgeStyle=orthogonalEdgeStyle;rounded=0;orthogonalLoop=1;jettySize=auto;html=1;startArrow=ERzeroToMany;startFill=0;endArrow=ERzeroToOne;endFill=0;" parent="1" source="xaJSOk3ItUcQXaajEq7--24" edge="1">
          <mxGeometry relative="1" as="geometry">
            <mxPoint x="429" y="560" as="targetPoint" />
          </mxGeometry>
        </mxCell>
        <mxCell id="xaJSOk3ItUcQXaajEq7--24" value="Commentary" style="swimlane;whiteSpace=wrap;html=1;labelBackgroundColor=none;" parent="1" vertex="1">
          <mxGeometry x="579" y="460" width="200" height="200" as="geometry" />
        </mxCell>
      </root>
    </mxGraphModel>
  </diagram>
  <diagram id="uM5munCsO0nPf_s9Du7u" name="Page-2">
    <mxGraphModel dx="1344" dy="847" grid="1" gridSize="10" guides="1" tooltips="1" connect="1" arrows="1" fold="1" page="1" pageScale="1" pageWidth="827" pageHeight="1169" math="0" shadow="0">
      <root>
        <mxCell id="0" />
        <mxCell id="1" parent="0" />
        <mxCell id="PRE4d4az8IVeql-HMFi6-1" value="Books" style="swimlane;whiteSpace=wrap;html=1;rounded=0;labelBackgroundColor=none;swimlaneLine=1;" parent="1" vertex="1">
          <mxGeometry x="610" y="700" width="200" height="200" as="geometry" />
        </mxCell>
        <mxCell id="PRE4d4az8IVeql-HMFi6-21" value="ID_book" style="text;html=1;align=center;verticalAlign=middle;resizable=0;points=[];autosize=1;strokeColor=none;fillColor=none;" parent="PRE4d4az8IVeql-HMFi6-1" vertex="1">
          <mxGeometry y="30" width="70" height="30" as="geometry" />
        </mxCell>
        <mxCell id="PRE4d4az8IVeql-HMFi6-22" value="autor" style="text;html=1;align=center;verticalAlign=middle;resizable=0;points=[];autosize=1;strokeColor=none;fillColor=none;" parent="PRE4d4az8IVeql-HMFi6-1" vertex="1">
          <mxGeometry y="60" width="50" height="30" as="geometry" />
        </mxCell>
        <mxCell id="PRE4d4az8IVeql-HMFi6-23" value="title" style="text;html=1;align=center;verticalAlign=middle;resizable=0;points=[];autosize=1;strokeColor=none;fillColor=none;" parent="PRE4d4az8IVeql-HMFi6-1" vertex="1">
          <mxGeometry y="80" width="40" height="30" as="geometry" />
        </mxCell>
        <mxCell id="PRE4d4az8IVeql-HMFi6-24" value="description" style="text;html=1;align=center;verticalAlign=middle;resizable=0;points=[];autosize=1;strokeColor=none;fillColor=none;" parent="PRE4d4az8IVeql-HMFi6-1" vertex="1">
          <mxGeometry y="50" width="80" height="30" as="geometry" />
        </mxCell>
        <mxCell id="PRE4d4az8IVeql-HMFi6-25" value="création date" style="text;html=1;align=center;verticalAlign=middle;resizable=0;points=[];autosize=1;strokeColor=none;fillColor=none;" parent="PRE4d4az8IVeql-HMFi6-1" vertex="1">
          <mxGeometry y="70" width="90" height="30" as="geometry" />
        </mxCell>
        <mxCell id="PRE4d4az8IVeql-HMFi6-26" value="domain" style="text;html=1;align=center;verticalAlign=middle;resizable=0;points=[];autosize=1;strokeColor=none;fillColor=none;" parent="PRE4d4az8IVeql-HMFi6-1" vertex="1">
          <mxGeometry y="100" width="60" height="30" as="geometry" />
        </mxCell>
        <mxCell id="PRE4d4az8IVeql-HMFi6-27" value="cover" style="text;html=1;align=center;verticalAlign=middle;resizable=0;points=[];autosize=1;strokeColor=none;fillColor=none;" parent="PRE4d4az8IVeql-HMFi6-1" vertex="1">
          <mxGeometry y="150" width="50" height="30" as="geometry" />
        </mxCell>
        <mxCell id="PRE4d4az8IVeql-HMFi6-28" value="number of copies" style="text;html=1;align=center;verticalAlign=middle;resizable=0;points=[];autosize=1;strokeColor=none;fillColor=none;" parent="PRE4d4az8IVeql-HMFi6-1" vertex="1">
          <mxGeometry x="6" y="90" width="120" height="30" as="geometry" />
        </mxCell>
        <mxCell id="PRE4d4az8IVeql-HMFi6-7" style="edgeStyle=orthogonalEdgeStyle;rounded=0;orthogonalLoop=1;jettySize=auto;html=1;startArrow=ERmandOne;startFill=0;endArrow=ERzeroToMany;endFill=0;" parent="1" source="PRE4d4az8IVeql-HMFi6-3" target="PRE4d4az8IVeql-HMFi6-5" edge="1">
          <mxGeometry relative="1" as="geometry" />
        </mxCell>
        <mxCell id="PRE4d4az8IVeql-HMFi6-3" value="Inscriptions" style="swimlane;whiteSpace=wrap;html=1;rounded=0;labelBackgroundColor=none;swimlaneLine=1;startSize=23;" parent="1" vertex="1">
          <mxGeometry x="318" y="120" width="200" height="200" as="geometry" />
        </mxCell>
        <mxCell id="PRE4d4az8IVeql-HMFi6-15" value="update" style="text;html=1;align=center;verticalAlign=middle;resizable=0;points=[];autosize=1;strokeColor=none;fillColor=none;" parent="PRE4d4az8IVeql-HMFi6-3" vertex="1">
          <mxGeometry x="10" y="60" width="60" height="30" as="geometry" />
        </mxCell>
        <mxCell id="PRE4d4az8IVeql-HMFi6-16" value="ID_inscription" style="text;html=1;align=center;verticalAlign=middle;resizable=0;points=[];autosize=1;strokeColor=none;fillColor=none;" parent="PRE4d4az8IVeql-HMFi6-3" vertex="1">
          <mxGeometry y="30" width="100" height="30" as="geometry" />
        </mxCell>
        <mxCell id="PRE4d4az8IVeql-HMFi6-17" value="création date" style="text;html=1;align=center;verticalAlign=middle;resizable=0;points=[];autosize=1;strokeColor=none;fillColor=none;" parent="PRE4d4az8IVeql-HMFi6-3" vertex="1">
          <mxGeometry x="10" y="80" width="90" height="30" as="geometry" />
        </mxCell>
        <mxCell id="PRE4d4az8IVeql-HMFi6-41" value="usernam" style="text;html=1;align=center;verticalAlign=middle;resizable=0;points=[];autosize=1;strokeColor=none;fillColor=none;" parent="PRE4d4az8IVeql-HMFi6-3" vertex="1">
          <mxGeometry x="10" y="100" width="70" height="30" as="geometry" />
        </mxCell>
        <mxCell id="PRE4d4az8IVeql-HMFi6-4" value="DVD" style="swimlane;whiteSpace=wrap;html=1;rounded=0;labelBackgroundColor=none;swimlaneLine=1;" parent="1" vertex="1">
          <mxGeometry x="14" y="710" width="200" height="200" as="geometry" />
        </mxCell>
        <mxCell id="PRE4d4az8IVeql-HMFi6-29" value="ID_DVD" style="text;html=1;align=center;verticalAlign=middle;resizable=0;points=[];autosize=1;strokeColor=none;fillColor=none;" parent="PRE4d4az8IVeql-HMFi6-4" vertex="1">
          <mxGeometry y="30" width="70" height="30" as="geometry" />
        </mxCell>
        <mxCell id="PRE4d4az8IVeql-HMFi6-30" value="category" style="text;html=1;align=center;verticalAlign=middle;resizable=0;points=[];autosize=1;strokeColor=none;fillColor=none;" parent="PRE4d4az8IVeql-HMFi6-4" vertex="1">
          <mxGeometry y="50" width="70" height="30" as="geometry" />
        </mxCell>
        <mxCell id="PRE4d4az8IVeql-HMFi6-31" value="title" style="text;html=1;align=center;verticalAlign=middle;resizable=0;points=[];autosize=1;strokeColor=none;fillColor=none;" parent="PRE4d4az8IVeql-HMFi6-4" vertex="1">
          <mxGeometry y="70" width="40" height="30" as="geometry" />
        </mxCell>
        <mxCell id="PRE4d4az8IVeql-HMFi6-33" value="création date" style="text;html=1;align=center;verticalAlign=middle;resizable=0;points=[];autosize=1;strokeColor=none;fillColor=none;" parent="PRE4d4az8IVeql-HMFi6-4" vertex="1">
          <mxGeometry x="-5" y="90" width="90" height="30" as="geometry" />
        </mxCell>
        <mxCell id="PRE4d4az8IVeql-HMFi6-32" value="actor" style="text;html=1;align=center;verticalAlign=middle;resizable=0;points=[];autosize=1;strokeColor=none;fillColor=none;" parent="PRE4d4az8IVeql-HMFi6-4" vertex="1">
          <mxGeometry x="-5" y="100" width="50" height="30" as="geometry" />
        </mxCell>
        <mxCell id="PRE4d4az8IVeql-HMFi6-35" value="nationality" style="text;html=1;align=center;verticalAlign=middle;resizable=0;points=[];autosize=1;strokeColor=none;fillColor=none;" parent="PRE4d4az8IVeql-HMFi6-4" vertex="1">
          <mxGeometry x="-5" y="80" width="80" height="30" as="geometry" />
        </mxCell>
        <mxCell id="PRE4d4az8IVeql-HMFi6-39" value="autor" style="text;html=1;align=center;verticalAlign=middle;resizable=0;points=[];autosize=1;strokeColor=none;fillColor=none;" parent="PRE4d4az8IVeql-HMFi6-4" vertex="1">
          <mxGeometry x="-5" y="110" width="50" height="30" as="geometry" />
        </mxCell>
        <mxCell id="PRE4d4az8IVeql-HMFi6-38" value="release" style="text;html=1;align=center;verticalAlign=middle;resizable=0;points=[];autosize=1;strokeColor=none;fillColor=none;" parent="PRE4d4az8IVeql-HMFi6-4" vertex="1">
          <mxGeometry x="-5" y="120" width="60" height="30" as="geometry" />
        </mxCell>
        <mxCell id="PRE4d4az8IVeql-HMFi6-37" value="cover" style="text;html=1;align=center;verticalAlign=middle;resizable=0;points=[];autosize=1;strokeColor=none;fillColor=none;" parent="PRE4d4az8IVeql-HMFi6-4" vertex="1">
          <mxGeometry x="-5" y="130" width="50" height="30" as="geometry" />
        </mxCell>
        <mxCell id="PRE4d4az8IVeql-HMFi6-8" style="edgeStyle=orthogonalEdgeStyle;rounded=0;orthogonalLoop=1;jettySize=auto;html=1;startArrow=ERzeroToOne;startFill=0;endArrow=ERzeroToMany;endFill=0;" parent="1" source="PRE4d4az8IVeql-HMFi6-5" target="PRE4d4az8IVeql-HMFi6-4" edge="1">
          <mxGeometry relative="1" as="geometry" />
        </mxCell>
        <mxCell id="PRE4d4az8IVeql-HMFi6-9" style="edgeStyle=orthogonalEdgeStyle;rounded=0;orthogonalLoop=1;jettySize=auto;html=1;entryX=0.576;entryY=0.005;entryDx=0;entryDy=0;entryPerimeter=0;startArrow=ERzeroToOne;startFill=0;endArrow=ERzeroToMany;endFill=0;" parent="1" source="PRE4d4az8IVeql-HMFi6-5" target="PRE4d4az8IVeql-HMFi6-1" edge="1">
          <mxGeometry relative="1" as="geometry" />
        </mxCell>
        <mxCell id="PRE4d4az8IVeql-HMFi6-5" value="Loan" style="swimlane;whiteSpace=wrap;html=1;rounded=0;labelBackgroundColor=none;swimlaneLine=1;startSize=23;" parent="1" vertex="1">
          <mxGeometry x="318" y="410" width="200" height="200" as="geometry" />
        </mxCell>
        <mxCell id="PRE4d4az8IVeql-HMFi6-18" value="ID_loan" style="text;html=1;align=center;verticalAlign=middle;resizable=0;points=[];autosize=1;strokeColor=none;fillColor=none;" parent="PRE4d4az8IVeql-HMFi6-5" vertex="1">
          <mxGeometry x="5" y="30" width="60" height="30" as="geometry" />
        </mxCell>
        <mxCell id="PRE4d4az8IVeql-HMFi6-19" value="nbrbooks" style="text;html=1;align=center;verticalAlign=middle;resizable=0;points=[];autosize=1;strokeColor=none;fillColor=none;" parent="PRE4d4az8IVeql-HMFi6-5" vertex="1">
          <mxGeometry x="5" y="80" width="70" height="30" as="geometry" />
        </mxCell>
        <mxCell id="PRE4d4az8IVeql-HMFi6-20" value="nbrDVD" style="text;html=1;align=center;verticalAlign=middle;resizable=0;points=[];autosize=1;strokeColor=none;fillColor=none;" parent="PRE4d4az8IVeql-HMFi6-5" vertex="1">
          <mxGeometry y="110" width="70" height="30" as="geometry" />
        </mxCell>
        <mxCell id="YSxTPYzfFi-Q9Y0SA4_6-16" value="Loan date" style="text;html=1;align=center;verticalAlign=middle;resizable=0;points=[];autosize=1;strokeColor=none;fillColor=none;" vertex="1" parent="PRE4d4az8IVeql-HMFi6-5">
          <mxGeometry y="144" width="80" height="30" as="geometry" />
        </mxCell>
        <mxCell id="PRE4d4az8IVeql-HMFi6-34" value="duration" style="text;html=1;align=center;verticalAlign=middle;resizable=0;points=[];autosize=1;strokeColor=none;fillColor=none;" parent="1" vertex="1">
          <mxGeometry x="4" y="860" width="70" height="30" as="geometry" />
        </mxCell>
        <mxCell id="PRE4d4az8IVeql-HMFi6-36" value="number of copies" style="text;html=1;align=center;verticalAlign=middle;resizable=0;points=[];autosize=1;strokeColor=none;fillColor=none;" parent="1" vertex="1">
          <mxGeometry x="4" y="850" width="120" height="30" as="geometry" />
        </mxCell>
        <mxCell id="YSxTPYzfFi-Q9Y0SA4_6-14" style="edgeStyle=orthogonalEdgeStyle;rounded=0;orthogonalLoop=1;jettySize=auto;html=1;entryX=0.25;entryY=1;entryDx=0;entryDy=0;startArrow=ERoneToMany;startFill=0;endArrow=ERzeroToMany;endFill=0;" edge="1" parent="1" source="YSxTPYzfFi-Q9Y0SA4_6-4" target="PRE4d4az8IVeql-HMFi6-4">
          <mxGeometry relative="1" as="geometry" />
        </mxCell>
        <mxCell id="YSxTPYzfFi-Q9Y0SA4_6-15" style="edgeStyle=orthogonalEdgeStyle;rounded=0;orthogonalLoop=1;jettySize=auto;html=1;entryX=0.75;entryY=1;entryDx=0;entryDy=0;startArrow=ERoneToMany;startFill=0;endArrow=ERzeroToMany;endFill=0;" edge="1" parent="1" source="YSxTPYzfFi-Q9Y0SA4_6-4" target="PRE4d4az8IVeql-HMFi6-1">
          <mxGeometry relative="1" as="geometry" />
        </mxCell>
        <mxCell id="YSxTPYzfFi-Q9Y0SA4_6-4" value="Autor" style="swimlane;whiteSpace=wrap;html=1;rounded=0;labelBackgroundColor=none;swimlaneLine=1;" vertex="1" parent="1">
          <mxGeometry x="313" y="930" width="200" height="90" as="geometry" />
        </mxCell>
        <mxCell id="YSxTPYzfFi-Q9Y0SA4_6-5" value="ID_autor" style="text;html=1;align=center;verticalAlign=middle;resizable=0;points=[];autosize=1;strokeColor=none;fillColor=none;" vertex="1" parent="YSxTPYzfFi-Q9Y0SA4_6-4">
          <mxGeometry y="30" width="70" height="30" as="geometry" />
        </mxCell>
        <mxCell id="YSxTPYzfFi-Q9Y0SA4_6-7" value="name" style="text;html=1;align=center;verticalAlign=middle;resizable=0;points=[];autosize=1;strokeColor=none;fillColor=none;" vertex="1" parent="YSxTPYzfFi-Q9Y0SA4_6-4">
          <mxGeometry x="10" y="50" width="50" height="30" as="geometry" />
        </mxCell>
        <mxCell id="YSxTPYzfFi-Q9Y0SA4_6-10" value="nationality" style="text;html=1;align=center;verticalAlign=middle;resizable=0;points=[];autosize=1;strokeColor=none;fillColor=none;" vertex="1" parent="YSxTPYzfFi-Q9Y0SA4_6-4">
          <mxGeometry x="60" y="50" width="80" height="30" as="geometry" />
        </mxCell>
        <mxCell id="YSxTPYzfFi-Q9Y0SA4_6-21" style="edgeStyle=orthogonalEdgeStyle;rounded=0;orthogonalLoop=1;jettySize=auto;html=1;entryX=0.012;entryY=0.688;entryDx=0;entryDy=0;entryPerimeter=0;startArrow=ERoneToMany;startFill=0;endArrow=ERzeroToMany;endFill=0;" edge="1" parent="1" source="YSxTPYzfFi-Q9Y0SA4_6-17" target="PRE4d4az8IVeql-HMFi6-28">
          <mxGeometry relative="1" as="geometry">
            <Array as="points">
              <mxPoint x="580" y="811" />
              <mxPoint x="580" y="811" />
            </Array>
          </mxGeometry>
        </mxCell>
        <mxCell id="YSxTPYzfFi-Q9Y0SA4_6-17" value="Category" style="swimlane;whiteSpace=wrap;html=1;rounded=0;labelBackgroundColor=none;swimlaneLine=1;" vertex="1" parent="1">
          <mxGeometry x="318" y="765" width="200" height="90" as="geometry" />
        </mxCell>
        <mxCell id="YSxTPYzfFi-Q9Y0SA4_6-18" value="ID_category" style="text;html=1;align=center;verticalAlign=middle;resizable=0;points=[];autosize=1;strokeColor=none;fillColor=none;" vertex="1" parent="YSxTPYzfFi-Q9Y0SA4_6-17">
          <mxGeometry x="-10" y="30" width="90" height="30" as="geometry" />
        </mxCell>
        <mxCell id="YSxTPYzfFi-Q9Y0SA4_6-19" value="name" style="text;html=1;align=center;verticalAlign=middle;resizable=0;points=[];autosize=1;strokeColor=none;fillColor=none;" vertex="1" parent="YSxTPYzfFi-Q9Y0SA4_6-17">
          <mxGeometry x="10" y="50" width="50" height="30" as="geometry" />
        </mxCell>
        <mxCell id="YSxTPYzfFi-Q9Y0SA4_6-22" style="edgeStyle=orthogonalEdgeStyle;rounded=0;orthogonalLoop=1;jettySize=auto;html=1;entryX=1;entryY=0.5;entryDx=0;entryDy=0;startArrow=ERoneToMany;startFill=0;endArrow=ERzeroToMany;endFill=0;" edge="1" parent="1" source="YSxTPYzfFi-Q9Y0SA4_6-18" target="PRE4d4az8IVeql-HMFi6-4">
          <mxGeometry relative="1" as="geometry" />
        </mxCell>
      </root>
    </mxGraphModel>
  </diagram>
</mxfile>
